<?xml version="1.0" encoding="UTF-8" standalone="no"?>
<!DOCTYPE svg PUBLIC "-//W3C//DTD SVG 1.1//EN" "http://www.w3.org/Graphics/SVG/1.1/DTD/svg11.dtd">
<svg width="100%" height="100%" viewBox="0 0 3600 922" version="1.1" xmlns="http://www.w3.org/2000/svg" xmlns:xlink="http://www.w3.org/1999/xlink" xml:space="preserve" xmlns:serif="http://www.serif.com/" style="fill-rule:evenodd;clip-rule:evenodd;stroke-linejoin:round;stroke-miterlimit:2;">
    <g transform="matrix(1,0,0,1,-2250,-289.092)">
        <g transform="matrix(2.99776,0,0,0.999255,-3186.61,-6.60478)">
            <g id="nicholas" transform="matrix(0.256251,0,0,0.768753,871.802,-1845.94)">
                <g transform="matrix(473.645,0,0,473.645,5565.99,3514.26)">
                    <path d="M0.552,0.001C0.537,0.001 0.525,-0.004 0.516,-0.014C0.506,-0.023 0.501,-0.035 0.501,-0.05L0.501,-0.296C0.501,-0.334 0.494,-0.365 0.48,-0.389C0.466,-0.413 0.447,-0.431 0.424,-0.443C0.4,-0.454 0.373,-0.46 0.342,-0.46C0.314,-0.46 0.289,-0.454 0.266,-0.443C0.243,-0.432 0.225,-0.417 0.212,-0.398C0.199,-0.379 0.192,-0.357 0.192,-0.332L0.129,-0.332C0.129,-0.374 0.139,-0.412 0.16,-0.445C0.18,-0.478 0.208,-0.504 0.243,-0.523C0.278,-0.542 0.318,-0.552 0.362,-0.552C0.408,-0.552 0.449,-0.542 0.486,-0.523C0.522,-0.503 0.551,-0.474 0.572,-0.436C0.592,-0.398 0.603,-0.351 0.603,-0.296L0.603,-0.05C0.603,-0.035 0.598,-0.023 0.589,-0.014C0.579,-0.004 0.567,0.001 0.552,0.001ZM0.141,0.001C0.126,0.001 0.114,-0.004 0.105,-0.014C0.095,-0.023 0.09,-0.035 0.09,-0.05L0.09,-0.496C0.09,-0.511 0.095,-0.524 0.105,-0.533C0.114,-0.542 0.126,-0.547 0.141,-0.547C0.156,-0.547 0.169,-0.542 0.178,-0.533C0.187,-0.524 0.192,-0.511 0.192,-0.496L0.192,-0.05C0.192,-0.035 0.187,-0.023 0.178,-0.014C0.169,-0.004 0.156,0.001 0.141,0.001Z" style="fill:rgb(0,191,243);fill-rule:nonzero;"/>
                </g>
                <g transform="matrix(473.645,0,0,473.645,5889.02,3514.26)">
                    <path d="M0.151,-0C0.136,-0 0.124,-0.005 0.115,-0.015C0.105,-0.024 0.1,-0.036 0.1,-0.051L0.1,-0.496C0.1,-0.511 0.105,-0.524 0.115,-0.533C0.124,-0.542 0.136,-0.547 0.151,-0.547C0.166,-0.547 0.179,-0.542 0.188,-0.533C0.197,-0.524 0.202,-0.511 0.202,-0.496L0.202,-0.051C0.202,-0.036 0.197,-0.024 0.188,-0.015C0.179,-0.005 0.166,-0 0.151,-0ZM0.151,-0.636C0.133,-0.636 0.117,-0.643 0.105,-0.656C0.092,-0.669 0.085,-0.684 0.085,-0.702C0.085,-0.72 0.092,-0.736 0.105,-0.749C0.117,-0.761 0.133,-0.768 0.151,-0.768C0.169,-0.768 0.185,-0.761 0.198,-0.749C0.211,-0.736 0.217,-0.72 0.217,-0.702C0.217,-0.684 0.211,-0.669 0.198,-0.656C0.185,-0.643 0.169,-0.636 0.151,-0.636Z" style="fill:rgb(0,191,243);fill-rule:nonzero;"/>
                </g>
                <g transform="matrix(473.645,0,0,473.645,6032.06,3514.26)">
                    <path d="M0.338,0.004C0.285,0.004 0.237,-0.008 0.196,-0.033C0.154,-0.057 0.121,-0.09 0.098,-0.132C0.074,-0.173 0.062,-0.22 0.062,-0.273C0.062,-0.327 0.074,-0.375 0.097,-0.417C0.12,-0.459 0.152,-0.492 0.193,-0.516C0.234,-0.539 0.28,-0.551 0.333,-0.551C0.372,-0.551 0.408,-0.544 0.441,-0.529C0.474,-0.514 0.503,-0.491 0.529,-0.461C0.538,-0.45 0.542,-0.439 0.539,-0.428C0.536,-0.417 0.529,-0.407 0.517,-0.398C0.508,-0.391 0.497,-0.389 0.486,-0.392C0.475,-0.394 0.464,-0.4 0.455,-0.409C0.422,-0.444 0.382,-0.461 0.333,-0.461C0.299,-0.461 0.269,-0.453 0.243,-0.438C0.217,-0.422 0.197,-0.4 0.182,-0.372C0.167,-0.344 0.16,-0.311 0.16,-0.273C0.16,-0.237 0.167,-0.205 0.183,-0.177C0.198,-0.149 0.218,-0.127 0.245,-0.111C0.272,-0.094 0.303,-0.086 0.338,-0.086C0.361,-0.086 0.382,-0.089 0.4,-0.095C0.417,-0.1 0.433,-0.109 0.448,-0.121C0.459,-0.13 0.47,-0.135 0.481,-0.136C0.492,-0.137 0.502,-0.133 0.511,-0.126C0.522,-0.117 0.529,-0.106 0.53,-0.095C0.531,-0.083 0.527,-0.072 0.518,-0.063C0.47,-0.018 0.41,0.004 0.338,0.004Z" style="fill:rgb(0,191,243);fill-rule:nonzero;"/>
                </g>
                <g transform="matrix(473.645,0,0,473.645,6316.72,3514.26)">
                    <path d="M0.552,0.001C0.537,0.001 0.525,-0.004 0.516,-0.014C0.506,-0.023 0.501,-0.035 0.501,-0.05L0.501,-0.296C0.501,-0.334 0.494,-0.365 0.48,-0.389C0.466,-0.413 0.447,-0.431 0.424,-0.443C0.4,-0.454 0.373,-0.46 0.342,-0.46C0.314,-0.46 0.289,-0.454 0.266,-0.443C0.243,-0.432 0.225,-0.417 0.212,-0.398C0.199,-0.379 0.192,-0.357 0.192,-0.332L0.129,-0.332C0.129,-0.374 0.139,-0.412 0.16,-0.445C0.18,-0.478 0.208,-0.504 0.243,-0.523C0.278,-0.542 0.318,-0.552 0.362,-0.552C0.408,-0.552 0.449,-0.542 0.486,-0.523C0.522,-0.503 0.551,-0.474 0.572,-0.436C0.592,-0.398 0.603,-0.351 0.603,-0.296L0.603,-0.05C0.603,-0.035 0.598,-0.023 0.589,-0.014C0.579,-0.004 0.567,0.001 0.552,0.001ZM0.141,0.001C0.126,0.001 0.114,-0.004 0.105,-0.014C0.095,-0.023 0.09,-0.035 0.09,-0.05L0.09,-0.496C0.09,-0.511 0.095,-0.524 0.105,-0.533C0.114,-0.542 0.126,-0.547 0.141,-0.547C0.156,-0.547 0.169,-0.542 0.178,-0.533C0.187,-0.524 0.192,-0.511 0.192,-0.496L0.192,-0.05C0.192,-0.035 0.187,-0.023 0.178,-0.014C0.169,-0.004 0.156,0.001 0.141,0.001ZM0.141,-0.199C0.126,-0.199 0.114,-0.204 0.105,-0.214C0.095,-0.223 0.09,-0.235 0.09,-0.25L0.09,-0.73C0.09,-0.745 0.095,-0.758 0.105,-0.767C0.114,-0.776 0.126,-0.781 0.141,-0.781C0.156,-0.781 0.169,-0.776 0.178,-0.767C0.187,-0.758 0.192,-0.745 0.192,-0.73L0.192,-0.25C0.192,-0.235 0.187,-0.223 0.178,-0.214C0.169,-0.204 0.156,-0.199 0.141,-0.199Z" style="fill:rgb(0,191,243);fill-rule:nonzero;"/>
                </g>
                <g transform="matrix(473.645,0,0,473.645,6640.22,3514.26)">
                    <path d="M0.338,0.004C0.284,0.004 0.236,-0.008 0.195,-0.032C0.154,-0.055 0.121,-0.088 0.098,-0.13C0.074,-0.171 0.062,-0.219 0.062,-0.273C0.062,-0.328 0.074,-0.376 0.098,-0.418C0.121,-0.459 0.154,-0.492 0.195,-0.516C0.236,-0.539 0.284,-0.551 0.338,-0.551C0.391,-0.551 0.439,-0.539 0.48,-0.516C0.521,-0.492 0.554,-0.459 0.578,-0.418C0.601,-0.376 0.613,-0.328 0.613,-0.273C0.613,-0.219 0.601,-0.171 0.578,-0.13C0.555,-0.088 0.522,-0.055 0.481,-0.032C0.44,-0.008 0.392,0.004 0.338,0.004ZM0.338,-0.086C0.373,-0.086 0.403,-0.094 0.43,-0.11C0.457,-0.126 0.478,-0.148 0.493,-0.176C0.507,-0.204 0.515,-0.236 0.515,-0.273C0.515,-0.31 0.507,-0.342 0.493,-0.371C0.478,-0.399 0.457,-0.421 0.43,-0.437C0.403,-0.453 0.373,-0.461 0.338,-0.461C0.303,-0.461 0.273,-0.453 0.246,-0.437C0.219,-0.421 0.198,-0.399 0.183,-0.371C0.168,-0.342 0.16,-0.31 0.16,-0.273C0.16,-0.236 0.168,-0.204 0.183,-0.176C0.198,-0.148 0.219,-0.126 0.246,-0.11C0.273,-0.094 0.303,-0.086 0.338,-0.086Z" style="fill:rgb(0,191,243);fill-rule:nonzero;"/>
                </g>
                <g transform="matrix(473.645,0,0,473.645,6959.93,3514.26)">
                    <path d="M0.22,-0C0.191,-0 0.165,-0.008 0.142,-0.024C0.119,-0.04 0.102,-0.062 0.089,-0.09C0.076,-0.117 0.07,-0.149 0.07,-0.185L0.07,-0.731C0.07,-0.746 0.075,-0.758 0.084,-0.767C0.093,-0.776 0.105,-0.781 0.12,-0.781C0.135,-0.781 0.147,-0.776 0.156,-0.767C0.165,-0.758 0.17,-0.746 0.17,-0.731L0.17,-0.185C0.17,-0.16 0.175,-0.14 0.184,-0.124C0.193,-0.108 0.205,-0.1 0.22,-0.1L0.245,-0.1C0.258,-0.1 0.269,-0.095 0.278,-0.086C0.286,-0.077 0.29,-0.065 0.29,-0.05C0.29,-0.035 0.284,-0.023 0.271,-0.014C0.258,-0.005 0.242,-0 0.222,-0L0.22,-0Z" style="fill:rgb(0,191,243);fill-rule:nonzero;"/>
                </g>
                <g transform="matrix(473.645,0,0,473.645,7087.81,3514.26)">
                    <path d="M0.318,0.004C0.269,0.004 0.226,-0.008 0.187,-0.033C0.148,-0.057 0.118,-0.09 0.096,-0.132C0.073,-0.173 0.062,-0.22 0.062,-0.273C0.062,-0.326 0.074,-0.373 0.099,-0.415C0.123,-0.457 0.156,-0.49 0.198,-0.515C0.239,-0.539 0.286,-0.551 0.338,-0.551C0.39,-0.551 0.437,-0.539 0.478,-0.515C0.519,-0.49 0.552,-0.457 0.577,-0.415C0.601,-0.373 0.613,-0.326 0.613,-0.273L0.574,-0.273C0.574,-0.22 0.563,-0.173 0.541,-0.132C0.518,-0.09 0.488,-0.057 0.449,-0.033C0.41,-0.008 0.367,0.004 0.318,0.004ZM0.338,-0.086C0.372,-0.086 0.402,-0.094 0.429,-0.111C0.456,-0.127 0.477,-0.149 0.492,-0.178C0.507,-0.206 0.515,-0.238 0.515,-0.273C0.515,-0.309 0.507,-0.341 0.492,-0.37C0.477,-0.398 0.456,-0.42 0.429,-0.437C0.402,-0.453 0.372,-0.461 0.338,-0.461C0.305,-0.461 0.275,-0.453 0.248,-0.437C0.221,-0.42 0.199,-0.398 0.184,-0.37C0.168,-0.341 0.16,-0.309 0.16,-0.273C0.16,-0.238 0.168,-0.206 0.184,-0.178C0.199,-0.149 0.221,-0.127 0.248,-0.111C0.275,-0.094 0.305,-0.086 0.338,-0.086ZM0.562,0.001C0.547,0.001 0.535,-0.004 0.526,-0.014C0.516,-0.023 0.511,-0.035 0.511,-0.05L0.511,-0.203L0.53,-0.309L0.613,-0.273L0.613,-0.05C0.613,-0.035 0.608,-0.023 0.599,-0.014C0.589,-0.004 0.577,0.001 0.562,0.001Z" style="fill:rgb(0,191,243);fill-rule:nonzero;"/>
                </g>
                <g transform="matrix(473.645,0,0,473.645,7407.52,3514.26)">
                    <path d="M0.289,0.004C0.242,0.004 0.199,-0.003 0.16,-0.018C0.12,-0.032 0.089,-0.05 0.067,-0.072C0.057,-0.083 0.053,-0.095 0.055,-0.109C0.056,-0.122 0.063,-0.133 0.074,-0.142C0.087,-0.153 0.1,-0.157 0.114,-0.156C0.127,-0.154 0.138,-0.148 0.147,-0.138C0.158,-0.125 0.177,-0.114 0.202,-0.103C0.227,-0.092 0.254,-0.086 0.285,-0.086C0.324,-0.086 0.353,-0.092 0.374,-0.105C0.394,-0.118 0.404,-0.134 0.405,-0.154C0.406,-0.174 0.396,-0.191 0.377,-0.206C0.357,-0.221 0.321,-0.233 0.269,-0.242C0.202,-0.255 0.153,-0.275 0.123,-0.302C0.092,-0.329 0.077,-0.361 0.077,-0.4C0.077,-0.434 0.087,-0.462 0.107,-0.485C0.127,-0.507 0.153,-0.524 0.184,-0.535C0.215,-0.546 0.248,-0.551 0.282,-0.551C0.326,-0.551 0.365,-0.544 0.399,-0.53C0.433,-0.516 0.46,-0.497 0.48,-0.472C0.489,-0.461 0.494,-0.45 0.493,-0.439C0.492,-0.427 0.487,-0.417 0.476,-0.409C0.465,-0.402 0.453,-0.399 0.438,-0.402C0.423,-0.405 0.411,-0.411 0.401,-0.42C0.384,-0.436 0.366,-0.447 0.347,-0.453C0.328,-0.459 0.305,-0.462 0.28,-0.462C0.251,-0.462 0.226,-0.457 0.206,-0.447C0.185,-0.437 0.175,-0.422 0.175,-0.403C0.175,-0.391 0.178,-0.38 0.185,-0.371C0.191,-0.361 0.203,-0.352 0.222,-0.345C0.241,-0.337 0.268,-0.329 0.304,-0.322C0.354,-0.312 0.393,-0.299 0.423,-0.284C0.452,-0.269 0.472,-0.251 0.485,-0.231C0.498,-0.21 0.504,-0.187 0.504,-0.16C0.504,-0.129 0.496,-0.102 0.48,-0.077C0.463,-0.052 0.439,-0.033 0.408,-0.018C0.376,-0.003 0.336,0.004 0.289,0.004Z" style="fill:rgb(0,191,243);fill-rule:nonzero;"/>
                </g>
            </g>
        </g>
        <g transform="matrix(2.99776,0,0,0.999255,-3186.61,-6.60478)">
            <g id="jay" transform="matrix(0.256251,0,0,0.768753,871.802,-1845.94)">
                <g transform="matrix(473.645,0,0,473.645,7669.45,3514.26)">
                    <path d="M-0.05,0.234C-0.065,0.234 -0.077,0.229 -0.086,0.22C-0.095,0.21 -0.1,0.198 -0.1,0.183C-0.1,0.168 -0.095,0.155 -0.086,0.146C-0.077,0.137 -0.065,0.132 -0.05,0.132C-0.023,0.132 0,0.126 0.02,0.115C0.04,0.103 0.056,0.087 0.068,0.067C0.079,0.047 0.085,0.024 0.085,-0.002L0.085,-0.496C0.085,-0.511 0.09,-0.524 0.1,-0.533C0.109,-0.542 0.121,-0.547 0.136,-0.547C0.151,-0.547 0.164,-0.542 0.173,-0.533C0.182,-0.524 0.187,-0.511 0.187,-0.496L0.187,-0.002C0.187,0.044 0.177,0.085 0.157,0.12C0.136,0.155 0.108,0.183 0.073,0.204C0.038,0.224 -0.003,0.234 -0.05,0.234ZM0.136,-0.636C0.118,-0.636 0.102,-0.643 0.09,-0.656C0.077,-0.669 0.07,-0.684 0.07,-0.702C0.07,-0.72 0.077,-0.736 0.09,-0.749C0.102,-0.761 0.118,-0.768 0.136,-0.768C0.154,-0.768 0.169,-0.761 0.183,-0.749C0.196,-0.736 0.202,-0.72 0.202,-0.702C0.202,-0.684 0.196,-0.669 0.183,-0.656C0.169,-0.643 0.154,-0.636 0.136,-0.636Z" style="fill:rgb(248,74,167);fill-rule:nonzero;"/>
                </g>
                <g transform="matrix(473.645,0,0,473.645,7786.44,3514.26)">
                    <path d="M0.318,0.004C0.269,0.004 0.226,-0.008 0.187,-0.033C0.148,-0.057 0.118,-0.09 0.096,-0.132C0.073,-0.173 0.062,-0.22 0.062,-0.273C0.062,-0.326 0.074,-0.373 0.099,-0.415C0.123,-0.457 0.156,-0.49 0.198,-0.515C0.239,-0.539 0.286,-0.551 0.338,-0.551C0.39,-0.551 0.437,-0.539 0.478,-0.515C0.519,-0.49 0.552,-0.457 0.577,-0.415C0.601,-0.373 0.613,-0.326 0.613,-0.273L0.574,-0.273C0.574,-0.22 0.563,-0.173 0.541,-0.132C0.518,-0.09 0.488,-0.057 0.449,-0.033C0.41,-0.008 0.367,0.004 0.318,0.004ZM0.338,-0.086C0.372,-0.086 0.402,-0.094 0.429,-0.111C0.456,-0.127 0.477,-0.149 0.492,-0.178C0.507,-0.206 0.515,-0.238 0.515,-0.273C0.515,-0.309 0.507,-0.341 0.492,-0.37C0.477,-0.398 0.456,-0.42 0.429,-0.437C0.402,-0.453 0.372,-0.461 0.338,-0.461C0.305,-0.461 0.275,-0.453 0.248,-0.437C0.221,-0.42 0.199,-0.398 0.184,-0.37C0.168,-0.341 0.16,-0.309 0.16,-0.273C0.16,-0.238 0.168,-0.206 0.184,-0.178C0.199,-0.149 0.221,-0.127 0.248,-0.111C0.275,-0.094 0.305,-0.086 0.338,-0.086ZM0.562,0.001C0.547,0.001 0.535,-0.004 0.526,-0.014C0.516,-0.023 0.511,-0.035 0.511,-0.05L0.511,-0.203L0.53,-0.309L0.613,-0.273L0.613,-0.05C0.613,-0.035 0.608,-0.023 0.599,-0.014C0.589,-0.004 0.577,0.001 0.562,0.001Z" style="fill:rgb(248,74,167);fill-rule:nonzero;"/>
                </g>
                <g transform="matrix(473.645,0,0,473.645,8106.15,3514.26)">
                    <path d="M0.188,0.24C0.181,0.24 0.173,0.238 0.164,0.234C0.135,0.221 0.127,0.2 0.14,0.171L0.445,-0.518C0.458,-0.546 0.479,-0.554 0.508,-0.542C0.538,-0.529 0.546,-0.508 0.533,-0.479L0.227,0.209C0.219,0.23 0.206,0.24 0.188,0.24ZM0.306,-0.022C0.293,-0.017 0.282,-0.016 0.271,-0.021C0.26,-0.025 0.251,-0.033 0.244,-0.046L0.015,-0.481C0.008,-0.494 0.008,-0.506 0.013,-0.518C0.018,-0.529 0.026,-0.538 0.039,-0.543C0.052,-0.548 0.064,-0.549 0.075,-0.545C0.086,-0.54 0.095,-0.532 0.101,-0.519L0.32,-0.084C0.327,-0.071 0.329,-0.059 0.328,-0.048C0.326,-0.036 0.319,-0.027 0.306,-0.022Z" style="fill:rgb(248,74,167);fill-rule:nonzero;"/>
                </g>
            </g>
        </g>
        <g transform="matrix(2.99776,0,0,0.999255,-3186.61,-6.60478)">
            <g id="n" transform="matrix(0.256251,0,0,0.768753,852.613,238.26)">
                <path d="M4800,75L4800,1275L4050,1275L4050,675L4200,675L4200,1125L4650,1125L4650,225L4275,225L4275,75L4800,75Z" style="fill:rgb(248,74,167);"/>
            </g>
        </g>
        <g transform="matrix(2.99776,0,0,0.999255,-3186.61,-6.60478)">
            <g id="j" transform="matrix(0.256251,0,0,0.768753,852.613,238.26)">
                <path d="M3750,375L4500,375L4500,975L4350,975L4350,525L3900,525L3900,1125L3750,1125L3750,375Z" style="fill:rgb(0,191,243);"/>
            </g>
        </g>
        <g transform="matrix(2.99776,0,0,0.999255,-3186.61,-6.60478)">
            <g id="pipe" transform="matrix(0.567406,0,0,1.52965,464.338,-405.445)">
                <rect x="3037.06" y="606.328" width="27.628" height="307.448" style="fill:rgb(48,43,39);"/>
            </g>
        </g>
    </g>
</svg>
