<?xml version="1.0" encoding="UTF-8" standalone="no"?>
<!DOCTYPE svg PUBLIC "-//W3C//DTD SVG 1.1//EN" "http://www.w3.org/Graphics/SVG/1.1/DTD/svg11.dtd">
<svg width="100%" height="100%" viewBox="0 0 1500 1500" version="1.1" xmlns="http://www.w3.org/2000/svg" xmlns:xlink="http://www.w3.org/1999/xlink" xml:space="preserve" xmlns:serif="http://www.serif.com/" style="fill-rule:evenodd;clip-rule:evenodd;stroke-linejoin:round;stroke-miterlimit:2;">
    <g transform="matrix(1,0,0,1,-6611.91,-8.52651e-14)">
        <g id="Logo-Mark-Only" serif:id="Logo Mark Only" transform="matrix(1.0142,0,0,0.998097,-138.816,-71.8267)">
            <rect x="6656.21" y="71.964" width="1479" height="1502.86" style="fill:none;"/>
            <g id="j" transform="matrix(0.986,0,0,1.00191,3168.82,147.107)">
                <path d="M4800,75L4800,1275L4050,1275L4050,675L4200,675L4200,1125L4650,1125L4650,225L4275,225L4275,75L4800,75Z" style="fill:rgb(248,74,167);"/>
            </g>
            <g id="n" transform="matrix(0.986,0,0,1.00191,3168.82,147.107)">
                <path d="M3750,375L4500,375L4500,975L4350,975L4350,525L3900,525L3900,1125L3750,1125L3750,375Z" style="fill:rgb(0,191,243);"/>
            </g>
        </g>
        <g id="Layer1">
            <g id="logo-2" serif:id="logo 2">
            </g>
            <g id="logo-1" serif:id="logo 1">
            </g>
        </g>
    </g>
</svg>
